<svg style="border-radius:8px;overflow:hidden;border:3px solid #C89B3C" width="41mm" height="41mm" version="1.1" viewBox="0 0 41 41" fill_color="#1A1512" back_color="#FBF6EE" xmlns="http://www.w3.org/2000/svg"><path d="M2,2H3V3H2zM3,2H4V3H3zM4,2H5V3H4zM5,2H6V3H5zM6,2H7V3H6zM7,2H8V3H7zM8,2H9V3H8zM12,2H13V3H12zM13,2H14V3H13zM15,2H16V3H15zM16,2H17V3H16zM17,2H18V3H17zM18,2H19V3H18zM24,2H25V3H24zM25,2H26V3H25zM27,2H28V3H27zM28,2H29V3H28zM32,2H33V3H32zM33,2H34V3H33zM34,2H35V3H34zM35,2H36V3H35zM36,2H37V3H36zM37,2H38V3H37zM38,2H39V3H38zM2,3H3V4H2zM8,3H9V4H8zM11,3H12V4H11zM15,3H16V4H15zM17,3H18V4H17zM18,3H19V4H18zM22,3H23V4H22zM24,3H25V4H24zM27,3H28V4H27zM30,3H31V4H30zM32,3H33V4H32zM38,3H39V4H38zM2,4H3V5H2zM4,4H5V5H4zM5,4H6V5H5zM6,4H7V5H6zM8,4H9V5H8zM10,4H11V5H10zM13,4H14V5H13zM14,4H15V5H14zM19,4H20V5H19zM20,4H21V5H20zM22,4H23V5H22zM23,4H24V5H23zM24,4H25V5H24zM27,4H28V5H27zM28,4H29V5H28zM32,4H33V5H32zM34,4H35V5H34zM35,4H36V5H35zM36,4H37V5H36zM38,4H39V5H38zM2,5H3V6H2zM4,5H5V6H4zM5,5H6V6H5zM6,5H7V6H6zM8,5H9V6H8zM10,5H11V6H10zM12,5H13V6H12zM13,5H14V6H13zM14,5H15V6H14zM15,5H16V6H15zM16,5H17V6H16zM19,5H20V6H19zM20,5H21V6H20zM21,5H22V6H21zM23,5H24V6H23zM24,5H25V6H24zM27,5H28V6H27zM30,5H31V6H30zM32,5H33V6H32zM34,5H35V6H34zM35,5H36V6H35zM36,5H37V6H36zM38,5H39V6H38zM2,6H3V7H2zM4,6H5V7H4zM5,6H6V7H5zM6,6H7V7H6zM8,6H9V7H8zM11,6H12V7H11zM12,6H13V7H12zM14,6H15V7H14zM17,6H18V7H17zM18,6H19V7H18zM21,6H22V7H21zM23,6H24V7H23zM25,6H26V7H25zM26,6H27V7H26zM27,6H28V7H27zM28,6H29V7H28zM32,6H33V7H32zM34,6H35V7H34zM35,6H36V7H35zM36,6H37V7H36zM38,6H39V7H38zM2,7H3V8H2zM8,7H9V8H8zM12,7H13V8H12zM14,7H15V8H14zM19,7H20V8H19zM22,7H23V8H22zM24,7H25V8H24zM25,7H26V8H25zM27,7H28V8H27zM28,7H29V8H28zM32,7H33V8H32zM38,7H39V8H38zM2,8H3V9H2zM3,8H4V9H3zM4,8H5V9H4zM5,8H6V9H5zM6,8H7V9H6zM7,8H8V9H7zM8,8H9V9H8zM10,8H11V9H10zM12,8H13V9H12zM14,8H15V9H14zM16,8H17V9H16zM18,8H19V9H18zM20,8H21V9H20zM22,8H23V9H22zM24,8H25V9H24zM26,8H27V9H26zM28,8H29V9H28zM30,8H31V9H30zM32,8H33V9H32zM33,8H34V9H33zM34,8H35V9H34zM35,8H36V9H35zM36,8H37V9H36zM37,8H38V9H37zM38,8H39V9H38zM11,9H12V10H11zM16,9H17V10H16zM18,9H19V10H18zM20,9H21V10H20zM22,9H23V10H22zM23,9H24V10H23zM25,9H26V10H25zM27,9H28V10H27zM29,9H30V10H29zM30,9H31V10H30zM5,10H6V11H5zM6,10H7V11H6zM8,10H9V11H8zM9,10H10V11H9zM13,10H14V11H13zM14,10H15V11H14zM21,10H22V11H21zM22,10H23V11H22zM23,10H24V11H23zM24,10H25V11H24zM26,10H27V11H26zM27,10H28V11H27zM30,10H31V11H30zM35,10H36V11H35zM36,10H37V11H36zM4,11H5V12H4zM5,11H6V12H5zM6,11H7V12H6zM7,11H8V12H7zM10,11H11V12H10zM11,11H12V12H11zM13,11H14V12H13zM15,11H16V12H15zM17,11H18V12H17zM18,11H19V12H18zM19,11H20V12H19zM20,11H21V12H20zM21,11H22V12H21zM24,11H25V12H24zM25,11H26V12H25zM26,11H27V12H26zM27,11H28V12H27zM28,11H29V12H28zM29,11H30V12H29zM30,11H31V12H30zM33,11H34V12H33zM34,11H35V12H34zM36,11H37V12H36zM2,12H3V13H2zM3,12H4V13H3zM4,12H5V13H4zM5,12H6V13H5zM6,12H7V13H6zM7,12H8V13H7zM8,12H9V13H8zM9,12H10V13H9zM10,12H11V13H10zM12,12H13V13H12zM16,12H17V13H16zM18,12H19V13H18zM20,12H21V13H20zM21,12H22V13H21zM23,12H24V13H23zM26,12H27V13H26zM27,12H28V13H27zM29,12H30V13H29zM30,12H31V13H30zM31,12H32V13H31zM32,12H33V13H32zM33,12H34V13H33zM38,12H39V13H38zM7,13H8V14H7zM9,13H10V14H9zM10,13H11V14H10zM11,13H12V14H11zM12,13H13V14H12zM14,13H15V14H14zM17,13H18V14H17zM18,13H19V14H18zM20,13H21V14H20zM22,13H23V14H22zM24,13H25V14H24zM25,13H26V14H25zM28,13H29V14H28zM31,13H32V14H31zM32,13H33V14H32zM35,13H36V14H35zM36,13H37V14H36zM38,13H39V14H38zM2,14H3V15H2zM4,14H5V15H4zM5,14H6V15H5zM7,14H8V15H7zM8,14H9V15H8zM9,14H10V15H9zM11,14H12V15H11zM13,14H14V15H13zM14,14H15V15H14zM16,14H17V15H16zM17,14H18V15H17zM30,14H31V15H30zM32,14H33V15H32zM33,14H34V15H33zM35,14H36V15H35zM38,14H39V15H38zM3,15H4V16H3zM4,15H5V16H4zM5,15H6V16H5zM6,15H7V16H6zM7,15H8V16H7zM9,15H10V16H9zM10,15H11V16H10zM11,15H12V16H11zM12,15H13V16H12zM15,15H16V16H15zM17,15H18V16H17zM22,15H23V16H22zM23,15H24V16H23zM25,15H26V16H25zM26,15H27V16H26zM28,15H29V16H28zM29,15H30V16H29zM30,15H31V16H30zM31,15H32V16H31zM34,15H35V16H34zM36,15H37V16H36zM2,16H3V17H2zM4,16H5V17H4zM5,16H6V17H5zM6,16H7V17H6zM8,16H9V17H8zM10,16H11V17H10zM11,16H12V17H11zM12,16H13V17H12zM14,16H15V17H14zM17,16H18V17H17zM18,16H19V17H18zM20,16H21V17H20zM22,16H23V17H22zM24,16H25V17H24zM25,16H26V17H25zM26,16H27V17H26zM27,16H28V17H27zM29,16H30V17H29zM30,16H31V17H30zM31,16H32V17H31zM32,16H33V17H32zM35,16H36V17H35zM36,16H37V17H36zM37,16H38V17H37zM38,16H39V17H38zM2,17H3V18H2zM3,17H4V18H3zM5,17H6V18H5zM9,17H10V18H9zM11,17H12V18H11zM12,17H13V18H12zM13,17H14V18H13zM15,17H16V18H15zM17,17H18V18H17zM20,17H21V18H20zM21,17H22V18H21zM23,17H24V18H23zM24,17H25V18H24zM26,17H27V18H26zM29,17H30V18H29zM30,17H31V18H30zM31,17H32V18H31zM35,17H36V18H35zM36,17H37V18H36zM37,17H38V18H37zM38,17H39V18H38zM3,18H4V19H3zM4,18H5V19H4zM6,18H7V19H6zM7,18H8V19H7zM8,18H9V19H8zM11,18H12V19H11zM14,18H15V19H14zM15,18H16V19H15zM16,18H17V19H16zM19,18H20V19H19zM20,18H21V19H20zM21,18H22V19H21zM24,18H25V19H24zM25,18H26V19H25zM27,18H28V19H27zM29,18H30V19H29zM32,18H33V19H32zM36,18H37V19H36zM37,18H38V19H37zM38,18H39V19H38zM4,19H5V20H4zM5,19H6V20H5zM7,19H8V20H7zM12,19H13V20H12zM14,19H15V20H14zM16,19H17V20H16zM18,19H19V20H18zM19,19H20V20H19zM22,19H23V20H22zM27,19H28V20H27zM28,19H29V20H28zM29,19H30V20H29zM33,19H34V20H33zM35,19H36V20H35zM37,19H38V20H37zM4,20H5V21H4zM7,20H8V21H7zM8,20H9V21H8zM9,20H10V21H9zM10,20H11V21H10zM12,20H13V21H12zM14,20H15V21H14zM18,20H19V21H18zM22,20H23V21H22zM23,20H24V21H23zM24,20H25V21H24zM25,20H26V21H25zM27,20H28V21H27zM29,20H30V21H29zM30,20H31V21H30zM33,20H34V21H33zM36,20H37V21H36zM38,20H39V21H38zM2,21H3V22H2zM4,21H5V22H4zM5,21H6V22H5zM6,21H7V22H6zM7,21H8V22H7zM13,21H14V22H13zM15,21H16V22H15zM16,21H17V22H16zM17,21H18V22H17zM18,21H19V22H18zM20,21H21V22H20zM21,21H22V22H21zM22,21H23V22H22zM24,21H25V22H24zM25,21H26V22H25zM27,21H28V22H27zM28,21H29V22H28zM29,21H30V22H29zM30,21H31V22H30zM31,21H32V22H31zM33,21H34V22H33zM34,21H35V22H34zM37,21H38V22H37zM38,21H39V22H38zM4,22H5V23H4zM5,22H6V23H5zM6,22H7V23H6zM7,22H8V23H7zM8,22H9V23H8zM11,22H12V23H11zM12,22H13V23H12zM14,22H15V23H14zM15,22H16V23H15zM16,22H17V23H16zM18,22H19V23H18zM19,22H20V23H19zM22,22H23V23H22zM23,22H24V23H23zM24,22H25V23H24zM28,22H29V23H28zM30,22H31V23H30zM32,22H33V23H32zM34,22H35V23H34zM35,22H36V23H35zM3,23H4V24H3zM4,23H5V24H4zM5,23H6V24H5zM7,23H8V24H7zM9,23H10V24H9zM11,23H12V24H11zM12,23H13V24H12zM13,23H14V24H13zM15,23H16V24H15zM16,23H17V24H16zM22,23H23V24H22zM23,23H24V24H23zM25,23H26V24H25zM26,23H27V24H26zM27,23H28V24H27zM28,23H29V24H28zM29,23H30V24H29zM30,23H31V24H30zM33,23H34V24H33zM34,23H35V24H34zM36,23H37V24H36zM38,23H39V24H38zM3,24H4V25H3zM4,24H5V25H4zM5,24H6V25H5zM8,24H9V25H8zM10,24H11V25H10zM11,24H12V25H11zM21,24H22V25H21zM22,24H23V25H22zM23,24H24V25H23zM24,24H25V25H24zM26,24H27V25H26zM27,24H28V25H27zM29,24H30V25H29zM31,24H32V25H31zM34,24H35V25H34zM35,24H36V25H35zM36,24H37V25H36zM38,24H39V25H38zM2,25H3V26H2zM3,25H4V26H3zM5,25H6V26H5zM9,25H10V26H9zM12,25H13V26H12zM15,25H16V26H15zM16,25H17V26H16zM17,25H18V26H17zM18,25H19V26H18zM20,25H21V26H20zM22,25H23V26H22zM27,25H28V26H27zM29,25H30V26H29zM30,25H31V26H30zM31,25H32V26H31zM32,25H33V26H32zM33,25H34V26H33zM36,25H37V26H36zM2,26H3V27H2zM3,26H4V27H3zM6,26H7V27H6zM7,26H8V27H7zM8,26H9V27H8zM9,26H10V27H9zM15,26H16V27H15zM16,26H17V27H16zM20,26H21V27H20zM23,26H24V27H23zM24,26H25V27H24zM26,26H27V27H26zM27,26H28V27H27zM30,26H31V27H30zM32,26H33V27H32zM33,26H34V27H33zM34,26H35V27H34zM35,26H36V27H35zM2,27H3V28H2zM6,27H7V28H6zM7,27H8V28H7zM12,27H13V28H12zM16,27H17V28H16zM17,27H18V28H17zM19,27H20V28H19zM20,27H21V28H20zM23,27H24V28H23zM24,27H25V28H24zM27,27H28V28H27zM28,27H29V28H28zM29,27H30V28H29zM30,27H31V28H30zM34,27H35V28H34zM35,27H36V28H35zM36,27H37V28H36zM37,27H38V28H37zM2,28H3V29H2zM3,28H4V29H3zM5,28H6V29H5zM6,28H7V29H6zM7,28H8V29H7zM8,28H9V29H8zM9,28H10V29H9zM10,28H11V29H10zM15,28H16V29H15zM18,28H19V29H18zM19,28H20V29H19zM20,28H21V29H20zM22,28H23V29H22zM23,28H24V29H23zM24,28H25V29H24zM25,28H26V29H25zM26,28H27V29H26zM27,28H28V29H27zM29,28H30V29H29zM32,28H33V29H32zM34,28H35V29H34zM35,28H36V29H35zM36,28H37V29H36zM37,28H38V29H37zM38,28H39V29H38zM2,29H3V30H2zM4,29H5V30H4zM5,29H6V30H5zM6,29H7V30H6zM9,29H10V30H9zM11,29H12V30H11zM12,29H13V30H12zM14,29H15V30H14zM16,29H17V30H16zM19,29H20V30H19zM20,29H21V30H20zM25,29H26V30H25zM30,29H31V30H30zM31,29H32V30H31zM33,29H34V30H33zM35,29H36V30H35zM36,29H37V30H36zM38,29H39V30H38zM2,30H3V31H2zM4,30H5V31H4zM5,30H6V31H5zM8,30H9V31H8zM11,30H12V31H11zM12,30H13V31H12zM14,30H15V31H14zM15,30H16V31H15zM16,30H17V31H16zM17,30H18V31H17zM19,30H20V31H19zM22,30H23V31H22zM23,30H24V31H23zM24,30H25V31H24zM27,30H28V31H27zM29,30H30V31H29zM30,30H31V31H30zM31,30H32V31H31zM32,30H33V31H32zM33,30H34V31H33zM34,30H35V31H34zM37,30H38V31H37zM10,31H11V32H10zM12,31H13V32H12zM14,31H15V32H14zM16,31H17V32H16zM18,31H19V32H18zM19,31H20V32H19zM20,31H21V32H20zM22,31H23V32H22zM23,31H24V32H23zM24,31H25V32H24zM25,31H26V32H25zM30,31H31V32H30zM34,31H35V32H34zM35,31H36V32H35zM36,31H37V32H36zM37,31H38V32H37zM2,32H3V33H2zM3,32H4V33H3zM4,32H5V33H4zM5,32H6V33H5zM6,32H7V33H6zM7,32H8V33H7zM8,32H9V33H8zM10,32H11V33H10zM12,32H13V33H12zM14,32H15V33H14zM16,32H17V33H16zM18,32H19V33H18zM19,32H20V33H19zM23,32H24V33H23zM25,32H26V33H25zM26,32H27V33H26zM27,32H28V33H27zM29,32H30V33H29zM30,32H31V33H30zM32,32H33V33H32zM34,32H35V33H34zM35,32H36V33H35zM36,32H37V33H36zM38,32H39V33H38zM2,33H3V34H2zM8,33H9V34H8zM11,33H12V34H11zM12,33H13V34H12zM13,33H14V34H13zM15,33H16V34H15zM16,33H17V34H16zM18,33H19V34H18zM20,33H21V34H20zM22,33H23V34H22zM24,33H25V34H24zM27,33H28V34H27zM28,33H29V34H28zM29,33H30V34H29zM30,33H31V34H30zM34,33H35V34H34zM35,33H36V34H35zM38,33H39V34H38zM2,34H3V35H2zM4,34H5V35H4zM5,34H6V35H5zM6,34H7V35H6zM8,34H9V35H8zM10,34H11V35H10zM11,34H12V35H11zM15,34H16V35H15zM16,34H17V35H16zM17,34H18V35H17zM19,34H20V35H19zM20,34H21V35H20zM22,34H23V35H22zM28,34H29V35H28zM29,34H30V35H29zM30,34H31V35H30zM31,34H32V35H31zM32,34H33V35H32zM33,34H34V35H33zM34,34H35V35H34zM37,34H38V35H37zM38,34H39V35H38zM2,35H3V36H2zM4,35H5V36H4zM5,35H6V36H5zM6,35H7V36H6zM8,35H9V36H8zM10,35H11V36H10zM12,35H13V36H12zM15,35H16V36H15zM18,35H19V36H18zM19,35H20V36H19zM20,35H21V36H20zM23,35H24V36H23zM24,35H25V36H24zM26,35H27V36H26zM28,35H29V36H28zM29,35H30V36H29zM32,35H33V36H32zM35,35H36V36H35zM2,36H3V37H2zM4,36H5V37H4zM5,36H6V37H5zM6,36H7V37H6zM8,36H9V37H8zM12,36H13V37H12zM13,36H14V37H13zM14,36H15V37H14zM15,36H16V37H15zM18,36H19V37H18zM22,36H23V37H22zM23,36H24V37H23zM24,36H25V37H24zM25,36H26V37H25zM28,36H29V37H28zM30,36H31V37H30zM33,36H34V37H33zM34,36H35V37H34zM37,36H38V37H37zM38,36H39V37H38zM2,37H3V38H2zM8,37H9V38H8zM13,37H14V38H13zM14,37H15V38H14zM17,37H18V38H17zM19,37H20V38H19zM20,37H21V38H20zM21,37H22V38H21zM22,37H23V38H22zM24,37H25V38H24zM25,37H26V38H25zM26,37H27V38H26zM28,37H29V38H28zM31,37H32V38H31zM34,37H35V38H34zM35,37H36V38H35zM36,37H37V38H36zM37,37H38V38H37zM38,37H39V38H38zM2,38H3V39H2zM3,38H4V39H3zM4,38H5V39H4zM5,38H6V39H5zM6,38H7V39H6zM7,38H8V39H7zM8,38H9V39H8zM11,38H12V39H11zM12,38H13V39H12zM13,38H14V39H13zM15,38H16V39H15zM21,38H22V39H21zM24,38H25V39H24zM25,38H26V39H25zM26,38H27V39H26zM29,38H30V39H29zM30,38H31V39H30zM31,38H32V39H31zM35,38H36V39H35zM38,38H39V39H38z" id="qr-path" fill="#000000" fill-opacity="1" fill-rule="nonzero" stroke="none" /></svg>