<svg xmlns="http://www.w3.org/2000/svg" viewBox="0 0 490 490" width="50mm" height="50mm">
<rect x="0" y="0" width="490" height="490" fill="#FFFFFF"/>
<path d="M60,60h10v10h-10zM70,60h10v10h-10zM80,60h10v10h-10zM90,60h10v10h-10zM100,60h10v10h-10zM110,60h10v10h-10zM120,60h10v10h-10zM160,60h10v10h-10zM170,60h10v10h-10zM190,60h10v10h-10zM200,60h10v10h-10zM210,60h10v10h-10zM220,60h10v10h-10zM280,60h10v10h-10zM290,60h10v10h-10zM310,60h10v10h-10zM320,60h10v10h-10zM360,60h10v10h-10zM370,60h10v10h-10zM380,60h10v10h-10zM390,60h10v10h-10zM400,60h10v10h-10zM410,60h10v10h-10zM420,60h10v10h-10zM60,70h10v10h-10zM120,70h10v10h-10zM150,70h10v10h-10zM190,70h10v10h-10zM210,70h10v10h-10zM220,70h10v10h-10zM260,70h10v10h-10zM280,70h10v10h-10zM310,70h10v10h-10zM340,70h10v10h-10zM360,70h10v10h-10zM420,70h10v10h-10zM60,80h10v10h-10zM80,80h10v10h-10zM90,80h10v10h-10zM100,80h10v10h-10zM120,80h10v10h-10zM140,80h10v10h-10zM170,80h10v10h-10zM180,80h10v10h-10zM230,80h10v10h-10zM240,80h10v10h-10zM260,80h10v10h-10zM270,80h10v10h-10zM280,80h10v10h-10zM310,80h10v10h-10zM320,80h10v10h-10zM360,80h10v10h-10zM380,80h10v10h-10zM390,80h10v10h-10zM400,80h10v10h-10zM420,80h10v10h-10zM60,90h10v10h-10zM80,90h10v10h-10zM90,90h10v10h-10zM100,90h10v10h-10zM120,90h10v10h-10zM140,90h10v10h-10zM160,90h10v10h-10zM170,90h10v10h-10zM180,90h10v10h-10zM190,90h10v10h-10zM200,90h10v10h-10zM230,90h10v10h-10zM240,90h10v10h-10zM250,90h10v10h-10zM270,90h10v10h-10zM280,90h10v10h-10zM310,90h10v10h-10zM340,90h10v10h-10zM360,90h10v10h-10zM380,90h10v10h-10zM390,90h10v10h-10zM400,90h10v10h-10zM420,90h10v10h-10zM60,100h10v10h-10zM80,100h10v10h-10zM90,100h10v10h-10zM100,100h10v10h-10zM120,100h10v10h-10zM150,100h10v10h-10zM160,100h10v10h-10zM180,100h10v10h-10zM210,100h10v10h-10zM220,100h10v10h-10zM250,100h10v10h-10zM270,100h10v10h-10zM290,100h10v10h-10zM300,100h10v10h-10zM310,100h10v10h-10zM320,100h10v10h-10zM360,100h10v10h-10zM380,100h10v10h-10zM390,100h10v10h-10zM400,100h10v10h-10zM420,100h10v10h-10zM60,110h10v10h-10zM120,110h10v10h-10zM160,110h10v10h-10zM180,110h10v10h-10zM230,110h10v10h-10zM260,110h10v10h-10zM280,110h10v10h-10zM290,110h10v10h-10zM310,110h10v10h-10zM320,110h10v10h-10zM360,110h10v10h-10zM420,110h10v10h-10zM60,120h10v10h-10zM70,120h10v10h-10zM80,120h10v10h-10zM90,120h10v10h-10zM100,120h10v10h-10zM110,120h10v10h-10zM120,120h10v10h-10zM140,120h10v10h-10zM160,120h10v10h-10zM180,120h10v10h-10zM200,120h10v10h-10zM220,120h10v10h-10zM240,120h10v10h-10zM260,120h10v10h-10zM280,120h10v10h-10zM300,120h10v10h-10zM320,120h10v10h-10zM340,120h10v10h-10zM360,120h10v10h-10zM370,120h10v10h-10zM380,120h10v10h-10zM390,120h10v10h-10zM400,120h10v10h-10zM410,120h10v10h-10zM420,120h10v10h-10zM150,130h10v10h-10zM200,130h10v10h-10zM220,130h10v10h-10zM240,130h10v10h-10zM260,130h10v10h-10zM270,130h10v10h-10zM290,130h10v10h-10zM310,130h10v10h-10zM330,130h10v10h-10zM340,130h10v10h-10zM90,140h10v10h-10zM100,140h10v10h-10zM120,140h10v10h-10zM130,140h10v10h-10zM170,140h10v10h-10zM180,140h10v10h-10zM250,140h10v10h-10zM260,140h10v10h-10zM270,140h10v10h-10zM280,140h10v10h-10zM300,140h10v10h-10zM310,140h10v10h-10zM340,140h10v10h-10zM390,140h10v10h-10zM400,140h10v10h-10zM80,150h10v10h-10zM90,150h10v10h-10zM100,150h10v10h-10zM110,150h10v10h-10zM140,150h10v10h-10zM150,150h10v10h-10zM170,150h10v10h-10zM190,150h10v10h-10zM210,150h10v10h-10zM220,150h10v10h-10zM230,150h10v10h-10zM240,150h10v10h-10zM250,150h10v10h-10zM280,150h10v10h-10zM290,150h10v10h-10zM300,150h10v10h-10zM310,150h10v10h-10zM320,150h10v10h-10zM330,150h10v10h-10zM340,150h10v10h-10zM370,150h10v10h-10zM380,150h10v10h-10zM400,150h10v10h-10zM60,160h10v10h-10zM70,160h10v10h-10zM80,160h10v10h-10zM90,160h10v10h-10zM100,160h10v10h-10zM110,160h10v10h-10zM120,160h10v10h-10zM130,160h10v10h-10zM140,160h10v10h-10zM160,160h10v10h-10zM200,160h10v10h-10zM220,160h10v10h-10zM240,160h10v10h-10zM250,160h10v10h-10zM270,160h10v10h-10zM300,160h10v10h-10zM310,160h10v10h-10zM330,160h10v10h-10zM340,160h10v10h-10zM350,160h10v10h-10zM360,160h10v10h-10zM370,160h10v10h-10zM420,160h10v10h-10zM110,170h10v10h-10zM130,170h10v10h-10zM140,170h10v10h-10zM150,170h10v10h-10zM160,170h10v10h-10zM180,170h10v10h-10zM210,170h10v10h-10zM220,170h10v10h-10zM240,170h10v10h-10zM260,170h10v10h-10zM280,170h10v10h-10zM290,170h10v10h-10zM320,170h10v10h-10zM350,170h10v10h-10zM360,170h10v10h-10zM390,170h10v10h-10zM400,170h10v10h-10zM420,170h10v10h-10zM60,180h10v10h-10zM80,180h10v10h-10zM90,180h10v10h-10zM110,180h10v10h-10zM120,180h10v10h-10zM130,180h10v10h-10zM150,180h10v10h-10zM170,180h10v10h-10zM180,180h10v10h-10zM200,180h10v10h-10zM210,180h10v10h-10zM340,180h10v10h-10zM360,180h10v10h-10zM370,180h10v10h-10zM390,180h10v10h-10zM420,180h10v10h-10zM70,190h10v10h-10zM80,190h10v10h-10zM90,190h10v10h-10zM100,190h10v10h-10zM110,190h10v10h-10zM130,190h10v10h-10zM140,190h10v10h-10zM150,190h10v10h-10zM160,190h10v10h-10zM190,190h10v10h-10zM210,190h10v10h-10zM260,190h10v10h-10zM270,190h10v10h-10zM290,190h10v10h-10zM300,190h10v10h-10zM320,190h10v10h-10zM330,190h10v10h-10zM340,190h10v10h-10zM350,190h10v10h-10zM380,190h10v10h-10zM400,190h10v10h-10zM60,200h10v10h-10zM80,200h10v10h-10zM90,200h10v10h-10zM100,200h10v10h-10zM120,200h10v10h-10zM140,200h10v10h-10zM150,200h10v10h-10zM160,200h10v10h-10zM180,200h10v10h-10zM210,200h10v10h-10zM220,200h10v10h-10zM240,200h10v10h-10zM260,200h10v10h-10zM280,200h10v10h-10zM290,200h10v10h-10zM300,200h10v10h-10zM310,200h10v10h-10zM330,200h10v10h-10zM340,200h10v10h-10zM350,200h10v10h-10zM360,200h10v10h-10zM390,200h10v10h-10zM400,200h10v10h-10zM410,200h10v10h-10zM420,200h10v10h-10zM60,210h10v10h-10zM70,210h10v10h-10zM90,210h10v10h-10zM130,210h10v10h-10zM150,210h10v10h-10zM160,210h10v10h-10zM170,210h10v10h-10zM190,210h10v10h-10zM210,210h10v10h-10zM240,210h10v10h-10zM250,210h10v10h-10zM270,210h10v10h-10zM280,210h10v10h-10zM300,210h10v10h-10zM330,210h10v10h-10zM340,210h10v10h-10zM350,210h10v10h-10zM390,210h10v10h-10zM400,210h10v10h-10zM410,210h10v10h-10zM420,210h10v10h-10zM70,220h10v10h-10zM80,220h10v10h-10zM100,220h10v10h-10zM110,220h10v10h-10zM120,220h10v10h-10zM150,220h10v10h-10zM180,220h10v10h-10zM190,220h10v10h-10zM200,220h10v10h-10zM230,220h10v10h-10zM240,220h10v10h-10zM250,220h10v10h-10zM280,220h10v10h-10zM290,220h10v10h-10zM310,220h10v10h-10zM330,220h10v10h-10zM360,220h10v10h-10zM400,220h10v10h-10zM410,220h10v10h-10zM420,220h10v10h-10zM80,230h10v10h-10zM90,230h10v10h-10zM110,230h10v10h-10zM160,230h10v10h-10zM180,230h10v10h-10zM200,230h10v10h-10zM220,230h10v10h-10zM230,230h10v10h-10zM260,230h10v10h-10zM310,230h10v10h-10zM320,230h10v10h-10zM330,230h10v10h-10zM370,230h10v10h-10zM390,230h10v10h-10zM410,230h10v10h-10zM80,240h10v10h-10zM110,240h10v10h-10zM120,240h10v10h-10zM130,240h10v10h-10zM140,240h10v10h-10zM160,240h10v10h-10zM180,240h10v10h-10zM220,240h10v10h-10zM260,240h10v10h-10zM270,240h10v10h-10zM280,240h10v10h-10zM290,240h10v10h-10zM310,240h10v10h-10zM330,240h10v10h-10zM340,240h10v10h-10zM370,240h10v10h-10zM400,240h10v10h-10zM420,240h10v10h-10zM60,250h10v10h-10zM80,250h10v10h-10zM90,250h10v10h-10zM100,250h10v10h-10zM110,250h10v10h-10zM170,250h10v10h-10zM190,250h10v10h-10zM200,250h10v10h-10zM210,250h10v10h-10zM220,250h10v10h-10zM240,250h10v10h-10zM250,250h10v10h-10zM260,250h10v10h-10zM280,250h10v10h-10zM290,250h10v10h-10zM310,250h10v10h-10zM320,250h10v10h-10zM330,250h10v10h-10zM340,250h10v10h-10zM350,250h10v10h-10zM370,250h10v10h-10zM380,250h10v10h-10zM410,250h10v10h-10zM420,250h10v10h-10zM80,260h10v10h-10zM90,260h10v10h-10zM100,260h10v10h-10zM110,260h10v10h-10zM120,260h10v10h-10zM150,260h10v10h-10zM160,260h10v10h-10zM180,260h10v10h-10zM190,260h10v10h-10zM200,260h10v10h-10zM220,260h10v10h-10zM230,260h10v10h-10zM260,260h10v10h-10zM270,260h10v10h-10zM280,260h10v10h-10zM320,260h10v10h-10zM340,260h10v10h-10zM360,260h10v10h-10zM380,260h10v10h-10zM390,260h10v10h-10zM70,270h10v10h-10zM80,270h10v10h-10zM90,270h10v10h-10zM110,270h10v10h-10zM130,270h10v10h-10zM150,270h10v10h-10zM160,270h10v10h-10zM170,270h10v10h-10zM190,270h10v10h-10zM200,270h10v10h-10zM260,270h10v10h-10zM270,270h10v10h-10zM290,270h10v10h-10zM300,270h10v10h-10zM310,270h10v10h-10zM320,270h10v10h-10zM330,270h10v10h-10zM340,270h10v10h-10zM370,270h10v10h-10zM380,270h10v10h-10zM400,270h10v10h-10zM420,270h10v10h-10zM70,280h10v10h-10zM80,280h10v10h-10zM90,280h10v10h-10zM120,280h10v10h-10zM140,280h10v10h-10zM150,280h10v10h-10zM250,280h10v10h-10zM260,280h10v10h-10zM270,280h10v10h-10zM280,280h10v10h-10zM300,280h10v10h-10zM310,280h10v10h-10zM330,280h10v10h-10zM350,280h10v10h-10zM380,280h10v10h-10zM390,280h10v10h-10zM400,280h10v10h-10zM420,280h10v10h-10zM60,290h10v10h-10zM70,290h10v10h-10zM90,290h10v10h-10zM130,290h10v10h-10zM160,290h10v10h-10zM190,290h10v10h-10zM200,290h10v10h-10zM210,290h10v10h-10zM220,290h10v10h-10zM240,290h10v10h-10zM260,290h10v10h-10zM310,290h10v10h-10zM330,290h10v10h-10zM340,290h10v10h-10zM350,290h10v10h-10zM360,290h10v10h-10zM370,290h10v10h-10zM400,290h10v10h-10zM60,300h10v10h-10zM70,300h10v10h-10zM100,300h10v10h-10zM110,300h10v10h-10zM120,300h10v10h-10zM130,300h10v10h-10zM190,300h10v10h-10zM200,300h10v10h-10zM240,300h10v10h-10zM270,300h10v10h-10zM280,300h10v10h-10zM300,300h10v10h-10zM310,300h10v10h-10zM340,300h10v10h-10zM360,300h10v10h-10zM370,300h10v10h-10zM380,300h10v10h-10zM390,300h10v10h-10zM60,310h10v10h-10zM100,310h10v10h-10zM110,310h10v10h-10zM160,310h10v10h-10zM200,310h10v10h-10zM210,310h10v10h-10zM230,310h10v10h-10zM240,310h10v10h-10zM270,310h10v10h-10zM280,310h10v10h-10zM310,310h10v10h-10zM320,310h10v10h-10zM330,310h10v10h-10zM340,310h10v10h-10zM380,310h10v10h-10zM390,310h10v10h-10zM400,310h10v10h-10zM410,310h10v10h-10zM60,320h10v10h-10zM70,320h10v10h-10zM90,320h10v10h-10zM100,320h10v10h-10zM110,320h10v10h-10zM120,320h10v10h-10zM130,320h10v10h-10zM140,320h10v10h-10zM190,320h10v10h-10zM220,320h10v10h-10zM230,320h10v10h-10zM240,320h10v10h-10zM260,320h10v10h-10zM270,320h10v10h-10zM280,320h10v10h-10zM290,320h10v10h-10zM300,320h10v10h-10zM310,320h10v10h-10zM330,320h10v10h-10zM360,320h10v10h-10zM380,320h10v10h-10zM390,320h10v10h-10zM400,320h10v10h-10zM410,320h10v10h-10zM420,320h10v10h-10zM60,330h10v10h-10zM80,330h10v10h-10zM90,330h10v10h-10zM100,330h10v10h-10zM130,330h10v10h-10zM150,330h10v10h-10zM160,330h10v10h-10zM180,330h10v10h-10zM200,330h10v10h-10zM230,330h10v10h-10zM240,330h10v10h-10zM290,330h10v10h-10zM340,330h10v10h-10zM350,330h10v10h-10zM370,330h10v10h-10zM390,330h10v10h-10zM400,330h10v10h-10zM420,330h10v10h-10zM60,340h10v10h-10zM80,340h10v10h-10zM90,340h10v10h-10zM120,340h10v10h-10zM150,340h10v10h-10zM160,340h10v10h-10zM180,340h10v10h-10zM190,340h10v10h-10zM200,340h10v10h-10zM210,340h10v10h-10zM230,340h10v10h-10zM260,340h10v10h-10zM270,340h10v10h-10zM280,340h10v10h-10zM310,340h10v10h-10zM330,340h10v10h-10zM340,340h10v10h-10zM350,340h10v10h-10zM360,340h10v10h-10zM370,340h10v10h-10zM380,340h10v10h-10zM410,340h10v10h-10zM140,350h10v10h-10zM160,350h10v10h-10zM180,350h10v10h-10zM200,350h10v10h-10zM220,350h10v10h-10zM230,350h10v10h-10zM240,350h10v10h-10zM260,350h10v10h-10zM270,350h10v10h-10zM280,350h10v10h-10zM290,350h10v10h-10zM340,350h10v10h-10zM380,350h10v10h-10zM390,350h10v10h-10zM400,350h10v10h-10zM410,350h10v10h-10zM60,360h10v10h-10zM70,360h10v10h-10zM80,360h10v10h-10zM90,360h10v10h-10zM100,360h10v10h-10zM110,360h10v10h-10zM120,360h10v10h-10zM140,360h10v10h-10zM160,360h10v10h-10zM180,360h10v10h-10zM200,360h10v10h-10zM220,360h10v10h-10zM230,360h10v10h-10zM270,360h10v10h-10zM290,360h10v10h-10zM300,360h10v10h-10zM310,360h10v10h-10zM330,360h10v10h-10zM340,360h10v10h-10zM360,360h10v10h-10zM380,360h10v10h-10zM390,360h10v10h-10zM400,360h10v10h-10zM420,360h10v10h-10zM60,370h10v10h-10zM120,370h10v10h-10zM150,370h10v10h-10zM160,370h10v10h-10zM170,370h10v10h-10zM190,370h10v10h-10zM200,370h10v10h-10zM220,370h10v10h-10zM240,370h10v10h-10zM260,370h10v10h-10zM280,370h10v10h-10zM310,370h10v10h-10zM320,370h10v10h-10zM330,370h10v10h-10zM340,370h10v10h-10zM380,370h10v10h-10zM390,370h10v10h-10zM420,370h10v10h-10zM60,380h10v10h-10zM80,380h10v10h-10zM90,380h10v10h-10zM100,380h10v10h-10zM120,380h10v10h-10zM140,380h10v10h-10zM150,380h10v10h-10zM190,380h10v10h-10zM200,380h10v10h-10zM210,380h10v10h-10zM230,380h10v10h-10zM240,380h10v10h-10zM260,380h10v10h-10zM320,380h10v10h-10zM330,380h10v10h-10zM340,380h10v10h-10zM350,380h10v10h-10zM360,380h10v10h-10zM370,380h10v10h-10zM380,380h10v10h-10zM410,380h10v10h-10zM420,380h10v10h-10zM60,390h10v10h-10zM80,390h10v10h-10zM90,390h10v10h-10zM100,390h10v10h-10zM120,390h10v10h-10zM140,390h10v10h-10zM160,390h10v10h-10zM190,390h10v10h-10zM220,390h10v10h-10zM230,390h10v10h-10zM240,390h10v10h-10zM270,390h10v10h-10zM280,390h10v10h-10zM300,390h10v10h-10zM320,390h10v10h-10zM330,390h10v10h-10zM360,390h10v10h-10zM390,390h10v10h-10zM60,400h10v10h-10zM80,400h10v10h-10zM90,400h10v10h-10zM100,400h10v10h-10zM120,400h10v10h-10zM160,400h10v10h-10zM170,400h10v10h-10zM180,400h10v10h-10zM190,400h10v10h-10zM220,400h10v10h-10zM260,400h10v10h-10zM270,400h10v10h-10zM280,400h10v10h-10zM290,400h10v10h-10zM320,400h10v10h-10zM340,400h10v10h-10zM370,400h10v10h-10zM380,400h10v10h-10zM410,400h10v10h-10zM420,400h10v10h-10zM60,410h10v10h-10zM120,410h10v10h-10zM170,410h10v10h-10zM180,410h10v10h-10zM210,410h10v10h-10zM230,410h10v10h-10zM240,410h10v10h-10zM250,410h10v10h-10zM260,410h10v10h-10zM280,410h10v10h-10zM290,410h10v10h-10zM300,410h10v10h-10zM320,410h10v10h-10zM350,410h10v10h-10zM380,410h10v10h-10zM390,410h10v10h-10zM400,410h10v10h-10zM410,410h10v10h-10zM420,410h10v10h-10zM60,420h10v10h-10zM70,420h10v10h-10zM80,420h10v10h-10zM90,420h10v10h-10zM100,420h10v10h-10zM110,420h10v10h-10zM120,420h10v10h-10zM150,420h10v10h-10zM160,420h10v10h-10zM170,420h10v10h-10zM190,420h10v10h-10zM250,420h10v10h-10zM280,420h10v10h-10zM290,420h10v10h-10zM300,420h10v10h-10zM330,420h10v10h-10zM340,420h10v10h-10zM350,420h10v10h-10zM390,420h10v10h-10zM420,420h10v10h-10z" fill="#1A1512"/>
</svg>